<svg width="21" height="16" viewBox="0 0 21 16" fill="none" xmlns="http://www.w3.org/2000/svg">
<path d="M6.64844 15.8359H15.1094C15.974 15.8359 16.6146 15.6094 17.0312 15.1562C17.4531 14.7031 17.7318 14.0469 17.8672 13.1875L19.1406 4.96094L17.1719 5.00781L15.8984 12.9688C15.8464 13.2917 15.7448 13.5234 15.5938 13.6641C15.4427 13.7995 15.224 13.8672 14.9375 13.8672H6.82031C6.52865 13.8672 6.30729 13.7995 6.15625 13.6641C6.01042 13.5234 5.91146 13.2917 5.85938 12.9688L4.58594 5.00781L2.61719 4.96094L3.89062 13.1875C4.02604 14.0521 4.30208 14.7083 4.71875 15.1562C5.14062 15.6094 5.78385 15.8359 6.64844 15.8359ZM3 6.05469H18.7578C19.3776 6.05469 19.8672 5.86719 20.2266 5.49219C20.5859 5.11719 20.7656 4.6224 20.7656 4.00781V2.94531C20.7656 2.33073 20.5859 1.83594 20.2266 1.46094C19.8672 1.08594 19.3776 0.898438 18.7578 0.898438H3C2.39583 0.898438 1.90885 1.08594 1.53906 1.46094C1.17448 1.83594 0.992188 2.33073 0.992188 2.94531V4.00781C0.992188 4.6224 1.17188 5.11719 1.53125 5.49219C1.89583 5.86719 2.38542 6.05469 3 6.05469ZM3.26562 4.28125C3.11458 4.28125 3 4.24219 2.92188 4.16406C2.84896 4.08073 2.8125 3.96354 2.8125 3.8125V3.13281C2.8125 2.98177 2.84896 2.86719 2.92188 2.78906C3 2.71094 3.11458 2.67188 3.26562 2.67188H18.4922C18.6432 2.67188 18.7552 2.71094 18.8281 2.78906C18.9062 2.86719 18.9453 2.98177 18.9453 3.13281V3.8125C18.9453 3.96354 18.9062 4.08073 18.8281 4.16406C18.7552 4.24219 18.6432 4.28125 18.4922 4.28125H3.26562ZM8.875 12.6953C9.08854 12.6953 9.27083 12.6172 9.42188 12.4609L10.8828 11L12.3359 12.4609C12.4141 12.5391 12.4974 12.599 12.5859 12.6406C12.6745 12.6771 12.7734 12.6953 12.8828 12.6953C13.0964 12.6953 13.2786 12.6198 13.4297 12.4688C13.5807 12.3177 13.6562 12.1354 13.6562 11.9219C13.6562 11.8073 13.6354 11.7057 13.5938 11.6172C13.5573 11.5286 13.5 11.4453 13.4219 11.3672L11.9766 9.92188L13.4297 8.46875C13.5859 8.3125 13.6641 8.13021 13.6641 7.92188C13.6641 7.70312 13.5885 7.51823 13.4375 7.36719C13.2865 7.21615 13.1016 7.14062 12.8828 7.14062C12.6849 7.14062 12.5052 7.21875 12.3438 7.375L10.8828 8.84375L9.42188 7.375C9.26562 7.22396 9.08333 7.14844 8.875 7.14844C8.66146 7.14844 8.47917 7.22396 8.32812 7.375C8.17708 7.52604 8.10156 7.70833 8.10156 7.92188C8.10156 8.13542 8.17969 8.32031 8.33594 8.47656L9.78906 9.92188L8.33594 11.3672C8.17969 11.5234 8.10156 11.7083 8.10156 11.9219C8.10156 12.1354 8.17708 12.3177 8.32812 12.4688C8.47917 12.6198 8.66146 12.6953 8.875 12.6953Z" fill="url(#paint0_linear_2001_1154)"/>
<defs>
<linearGradient id="paint0_linear_2001_1154" x1="3.71595" y1="2.27106" x2="24.0749" y2="6.22598" gradientUnits="userSpaceOnUse">
<stop stop-color="#EDC8FF"/>
<stop offset="1" stop-color="white"/>
</linearGradient>
</defs>
</svg>
