<svg width="62" height="61" viewBox="0 0 62 61" fill="none" xmlns="http://www.w3.org/2000/svg">
<rect opacity="0.1" x="0.499924" y="30.5" width="43.1336" height="43.1336" transform="rotate(-45 0.499924 30.5)" fill="url(#paint0_angular_2172_3231)"/>
<path d="M18.6484 32.6914C18.8281 32.8711 19.0352 32.9609 19.2695 32.9609C19.5117 32.9609 19.7227 32.8711 19.9023 32.6914L21.9648 30.6289C23.4023 29.1914 24.7188 27.8828 25.9141 26.7031C27.1094 25.5156 28.1836 24.4844 29.1367 23.6094C30.0898 22.7266 30.9297 22.0195 31.6562 21.4883C32.3828 20.957 32.9961 20.6172 33.4961 20.4688C34.0039 20.3203 34.4023 20.3906 34.6914 20.6797C34.9414 20.9297 34.9922 21.2891 34.8438 21.7578C34.6953 22.2266 34.3984 22.7852 33.9531 23.4336C33.5078 24.082 32.957 24.8047 32.3008 25.6016C31.6445 26.3906 30.9375 27.2344 30.1797 28.1328C29.5391 28.8828 28.9062 29.6328 28.2812 30.3828C27.6641 31.1328 27.1055 31.8711 26.6055 32.5977C26.1133 33.3164 25.7266 34.0117 25.4453 34.6836C25.1719 35.3477 25.0547 35.9766 25.0938 36.5703C25.1406 37.1562 25.4023 37.6875 25.8789 38.1641C26.293 38.5781 26.75 38.8164 27.25 38.8789C27.7578 38.9492 28.2969 38.8789 28.8672 38.668C29.4375 38.457 30.0273 38.1484 30.6367 37.7422C31.2539 37.3281 31.8789 36.8477 32.5117 36.3008C33.1445 35.7539 33.7695 35.1797 34.3867 34.5781C34.9805 34.0078 35.5312 33.4805 36.0391 32.9961C36.5547 32.5117 37.0195 32.1055 37.4336 31.7773C37.8555 31.4414 38.2148 31.2148 38.5117 31.0977C38.8086 30.9727 39.0352 30.9844 39.1914 31.1328C39.457 31.3984 39.4492 31.793 39.168 32.3164C38.8867 32.832 38.5234 33.4727 38.0781 34.2383C37.7969 34.7227 37.5156 35.2148 37.2344 35.7148C36.9531 36.207 36.7266 36.6875 36.5547 37.1562C36.3828 37.625 36.3086 38.0703 36.332 38.4922C36.3633 38.9141 36.5469 39.293 36.8828 39.6289C37.4062 40.1523 38.0938 40.2617 38.9453 39.957C39.8047 39.6602 40.7812 38.9492 41.875 37.8242C42.1016 37.6055 42.2188 37.375 42.2266 37.1328C42.2344 36.8828 42.1484 36.668 41.9688 36.4883C41.7891 36.3164 41.5781 36.2305 41.3359 36.2305C41.1016 36.2305 40.8945 36.3203 40.7148 36.5C40.1445 37.0234 39.6758 37.4297 39.3086 37.7188C38.9492 38 38.6641 38.1797 38.4531 38.2578C38.25 38.3359 38.1016 38.3281 38.0078 38.2344C37.8984 38.125 37.875 37.9609 37.9375 37.7422C38.0078 37.5234 38.1641 37.207 38.4062 36.793C38.6562 36.3789 38.9883 35.8281 39.4023 35.1406C39.9336 34.2734 40.3398 33.5195 40.6211 32.8789C40.9102 32.2305 41.0469 31.668 41.0312 31.1914C41.0234 30.707 40.8398 30.2852 40.4805 29.9258C39.9883 29.4258 39.4062 29.2344 38.7344 29.3516C38.0625 29.4688 37.2656 29.8633 36.3438 30.5352C35.4219 31.207 34.3477 32.1289 33.1211 33.3008C31.9102 34.4414 30.9102 35.3203 30.1211 35.9375C29.332 36.5469 28.6992 36.9258 28.2227 37.0742C27.7461 37.2148 27.3828 37.1602 27.1328 36.9102C26.8203 36.6133 26.7578 36.168 26.9453 35.5742C27.1328 34.9727 27.5977 34.1641 28.3398 33.1484C29.0898 32.1328 30.1445 30.8438 31.5039 29.2812C32.6445 27.9688 33.6055 26.8047 34.3867 25.7891C35.168 24.7656 35.7539 23.8672 36.1445 23.0938C36.5352 22.3125 36.7148 21.625 36.6836 21.0312C36.6602 20.4375 36.4102 19.9023 35.9336 19.4258C35.4648 18.957 34.9609 18.6758 34.4219 18.582C33.8828 18.4883 33.2422 18.6172 32.5 18.9688C31.7656 19.3203 30.8711 19.9219 29.8164 20.7734C28.7695 21.625 27.5039 22.7617 26.0195 24.1836C24.5352 25.5977 22.7695 27.3281 20.7227 29.375L18.6484 31.4375C18.4766 31.6172 18.3906 31.8281 18.3906 32.0703C18.3906 32.3047 18.4766 32.5117 18.6484 32.6914Z" fill="url(#paint1_linear_2172_3231)"/>
<defs>
<radialGradient id="paint0_angular_2172_3231" cx="0" cy="0" r="1" gradientUnits="userSpaceOnUse" gradientTransform="translate(22.0667 52.0668) rotate(135.048) scale(30.5322)">
<stop stop-color="white" stop-opacity="0"/>
<stop offset="1" stop-color="white"/>
</radialGradient>
<linearGradient id="paint1_linear_2172_3231" x1="21.6984" y1="17.1978" x2="46.8413" y2="20.3126" gradientUnits="userSpaceOnUse">
<stop stop-color="#EDC8FF"/>
<stop offset="1" stop-color="white"/>
</linearGradient>
</defs>
</svg>
