<svg width="295" height="117" viewBox="0 0 295 117" fill="none" xmlns="http://www.w3.org/2000/svg">
<rect width="82.9491" height="82.9491" transform="matrix(0.708956 -0.705252 0.708956 0.705252 0 58.4998)" fill="url(#paint0_angular_2079_1517)"/>
<path d="M69.6866 42.2102C69.6866 44.5891 70.0439 46.6887 70.7585 48.509C71.4731 50.3293 72.4199 51.8612 73.599 53.1047C74.7781 54.3302 76.1358 55.2674 77.6722 55.9162C79.2086 56.547 80.8075 56.8624 82.469 56.8624C83.7374 56.8624 84.9165 56.6461 86.0063 56.2136C87.1139 55.763 88.1411 55.1592 89.088 54.4023C90.0527 53.6454 90.9549 52.7713 91.7945 51.7801C92.6342 50.7888 93.4381 49.7435 94.2063 48.6442L97.9312 51.4016C97.1272 52.6992 96.1536 53.9517 95.0102 55.1592C93.8847 56.3667 92.6163 57.4301 91.205 58.3492C89.7937 59.2683 88.2573 60.0073 86.5958 60.566C84.9344 61.1066 83.1747 61.377 81.3167 61.377C78.1903 61.377 75.3051 60.9174 72.6611 59.9983C70.0349 59.0791 67.7661 57.7815 65.8545 56.1054C63.943 54.4293 62.4512 52.4198 61.3793 50.0769C60.3074 47.716 59.7715 45.0938 59.7715 42.2102C59.7715 39.4167 60.2806 36.8485 61.2989 34.5056C62.3172 32.1627 63.7465 30.1442 65.5865 28.4501C67.4445 26.738 69.6598 25.4043 72.2323 24.4491C74.8228 23.494 77.6812 23.0164 80.8075 23.0164C82.8978 23.0164 84.8093 23.2687 86.5422 23.7733C88.2751 24.2599 89.8472 24.9448 91.2586 25.8278C92.6878 26.6929 93.9562 27.7382 95.0638 28.9637C96.1893 30.1712 97.1808 31.5049 98.0384 32.9647L94.2867 35.614C93.5185 34.5146 92.6789 33.4783 91.7677 32.5051C90.8745 31.5319 89.9187 30.6849 88.9004 29.964C87.8821 29.2251 86.8102 28.6483 85.6847 28.2338C84.5592 27.8013 83.389 27.585 82.1742 27.585C80.5128 27.585 78.9228 27.9004 77.4043 28.5312C75.9036 29.162 74.5816 30.0991 73.4382 31.3427C72.2949 32.5682 71.3837 34.0911 70.7049 35.9114C70.026 37.7316 69.6866 39.8312 69.6866 42.2102Z" fill="white"/>
<path d="M125.291 61.377C122.362 61.377 119.628 60.8994 117.091 59.9442C114.555 58.989 112.357 57.6553 110.499 55.9432C108.641 54.2131 107.176 52.1675 106.104 49.8066C105.05 47.4277 104.523 44.8234 104.523 41.9939C104.523 39.2185 105.05 36.6773 106.104 34.3704C107.176 32.0456 108.641 30.0541 110.499 28.396C112.357 26.738 114.555 25.4494 117.091 24.5302C119.628 23.6111 122.362 23.1515 125.291 23.1515C128.221 23.1515 130.946 23.6201 133.465 24.5573C136.002 25.4764 138.199 26.765 140.057 28.4231C141.933 30.0811 143.407 32.0636 144.478 34.3704C145.55 36.6593 146.086 39.1734 146.086 41.9128C146.086 43.8592 145.845 45.6975 145.363 47.4277C144.88 49.1398 144.193 50.7167 143.299 52.1585C142.406 53.6003 141.334 54.8889 140.084 56.0243C138.833 57.1597 137.431 58.1239 135.876 58.9169C134.34 59.7099 132.679 60.3136 130.892 60.7282C129.106 61.1607 127.239 61.377 125.291 61.377ZM125.291 58.2951C127.06 58.2951 128.623 57.8896 129.981 57.0786C131.339 56.2496 132.473 55.1142 133.384 53.6724C134.295 52.2306 134.983 50.5185 135.448 48.536C135.93 46.5355 136.171 44.3548 136.171 41.9939C136.171 39.669 135.93 37.5424 135.448 35.614C134.983 33.6856 134.295 32.0275 133.384 30.6398C132.473 29.2521 131.339 28.1708 129.981 27.3958C128.623 26.6208 127.06 26.2333 125.291 26.2333C123.505 26.2333 121.933 26.6208 120.575 27.3958C119.217 28.1708 118.083 29.2521 117.172 30.6398C116.261 32.0275 115.573 33.6856 115.108 35.614C114.644 37.5424 114.412 39.669 114.412 41.9939C114.412 44.3548 114.644 46.5355 115.108 48.536C115.573 50.5185 116.261 52.2306 117.172 53.6724C118.083 55.1142 119.217 56.2496 120.575 57.0786C121.933 57.8896 123.505 58.2951 125.291 58.2951Z" fill="white"/>
<path d="M154.072 23.9085H167.256C170.651 23.9085 173.768 24.314 176.609 25.125C179.449 25.918 181.897 27.0804 183.951 28.6123C186.006 30.1442 187.596 32.0275 188.721 34.2623C189.865 36.4971 190.436 39.0473 190.436 41.9128C190.436 44.49 189.954 46.914 188.989 49.1848C188.024 51.4376 186.613 53.4111 184.755 55.1052C182.915 56.7993 180.646 58.1329 177.949 59.1061C175.251 60.0794 172.16 60.566 168.677 60.566H154.072V23.9085ZM162.996 56.8083H167.739C169.49 56.8083 171.133 56.4839 172.669 55.8351C174.224 55.1863 175.581 54.2311 176.743 52.9695C177.904 51.708 178.815 50.158 179.476 48.3198C180.155 46.4815 180.494 44.3729 180.494 41.9939C180.494 39.9394 180.173 38.038 179.53 36.2898C178.904 34.5236 178.029 33.0007 176.903 31.7212C175.778 30.4416 174.429 29.4413 172.857 28.7204C171.303 27.9815 169.597 27.6121 167.739 27.6121H162.996V56.8083Z" fill="white"/>
<path d="M198.556 23.9085H207.453V60.566H198.556V23.9085Z" fill="white"/>
<path d="M216.564 23.9085H222.272L242.986 47.2114V23.9085H248.56V61.1066H244.728L222.218 35.3707V60.566H216.564V23.9085Z" fill="white"/>
<path d="M279.913 42.6968H295V56.8083C293.839 57.4391 292.678 58.0158 291.517 58.5384C290.355 59.0611 289.114 59.5116 287.792 59.8901C286.47 60.2686 285.023 60.566 283.45 60.7822C281.896 60.9985 280.145 61.1066 278.198 61.1066C275.072 61.1066 272.187 60.6651 269.543 59.782C266.916 58.8989 264.639 57.6553 262.709 56.0514C260.798 54.4474 259.306 52.51 258.234 50.2391C257.162 47.9683 256.626 45.4542 256.626 42.6968C256.626 39.7772 257.162 37.1098 258.234 34.6948C259.306 32.2799 260.798 30.2073 262.709 28.4771C264.621 26.747 266.89 25.4043 269.516 24.4491C272.16 23.494 275.045 23.0164 278.171 23.0164C280.011 23.0164 281.78 23.2687 283.477 23.7733C285.192 24.2779 286.773 24.9448 288.22 25.7738C289.668 26.6028 290.972 27.558 292.133 28.6393C293.294 29.7027 294.25 30.802 295 31.9374L291.329 35.3166C290.561 34.2173 289.757 33.199 288.917 32.2618C288.078 31.3247 287.184 30.5137 286.237 29.8288C285.291 29.1259 284.272 28.5763 283.183 28.1798C282.111 27.7833 280.958 27.585 279.726 27.585C277.85 27.585 276.099 27.9275 274.473 28.6123C272.865 29.2972 271.463 30.2884 270.266 31.586C269.087 32.8656 268.158 34.4425 267.479 36.3169C266.818 38.1912 266.488 40.3178 266.488 42.6968C266.488 45.0757 266.845 47.1753 267.56 48.9956C268.274 50.8159 269.248 52.3478 270.48 53.5913C271.713 54.8348 273.151 55.781 274.795 56.4298C276.456 57.0606 278.234 57.376 280.128 57.376C281.253 57.376 282.316 57.2318 283.316 56.9435C284.317 56.6371 285.237 56.1775 286.077 55.5647V45.8327H279.913V42.6968Z" fill="white"/>
<path d="M69.3366 93.9835C67.9932 93.9835 66.7371 93.73 65.5681 93.223C64.4079 92.7159 63.396 92.0245 62.5324 91.1487C61.6775 90.2636 61.0015 89.2357 60.5042 88.0649C60.0157 86.8848 59.7715 85.6264 59.7715 84.2897C59.7715 83.4138 59.8805 82.5703 60.0986 81.759C60.3254 80.9477 60.6438 80.1918 61.0538 79.4911C61.4638 78.7905 61.9567 78.1544 62.5324 77.5828C63.1169 77.002 63.7624 76.5088 64.469 76.1031C65.1756 75.6883 65.9389 75.3702 66.7589 75.1489C67.5876 74.9185 68.4468 74.8032 69.3366 74.8032C70.2351 74.8032 71.0944 74.9185 71.9143 75.1489C72.7343 75.3702 73.4976 75.6883 74.2042 76.1031C74.9195 76.5088 75.5651 77.002 76.1408 77.5828C76.7165 78.1544 77.2094 78.7905 77.6194 79.4911C78.0381 80.1918 78.3565 80.9477 78.5746 81.759C78.8014 82.5703 78.9148 83.4138 78.9148 84.2897C78.9148 85.1839 78.8014 86.0413 78.5746 86.8618C78.3565 87.6823 78.0381 88.4521 77.6194 89.1712C77.2094 89.8903 76.7165 90.5448 76.1408 91.1348C75.5651 91.7249 74.9195 92.2319 74.2042 92.656C73.4976 93.0801 72.7343 93.4073 71.9143 93.6378C71.0944 93.8683 70.2351 93.9835 69.3366 93.9835ZM69.3366 93.0708C70.3311 93.0708 71.2078 92.8542 71.9667 92.4209C72.7343 91.9784 73.3799 91.3653 73.9033 90.5817C74.4267 89.7981 74.8192 88.8715 75.0809 87.8021C75.3513 86.7327 75.4865 85.5619 75.4865 84.2897C75.4865 83.0266 75.3513 81.8697 75.0809 80.8187C74.8192 79.7677 74.4267 78.8642 73.9033 78.1083C73.3799 77.3431 72.7343 76.7531 71.9667 76.3382C71.2078 75.9141 70.3311 75.7021 69.3366 75.7021C68.3247 75.7021 67.4349 75.9141 66.6673 76.3382C65.9083 76.7531 65.2672 77.3431 64.7438 78.1083C64.2291 78.8642 63.8409 79.7677 63.5792 80.8187C63.3175 81.8697 63.1867 83.0266 63.1867 84.2897C63.1867 85.5619 63.3175 86.7327 63.5792 87.8021C63.8409 88.8715 64.2291 89.7981 64.7438 90.5817C65.2672 91.3653 65.9083 91.9784 66.6673 92.4209C67.4349 92.8542 68.3247 93.0708 69.3366 93.0708Z" fill="white"/>
<path d="M82.5786 75.2181H85.4966V87.1245C85.4966 87.9082 85.6231 88.6457 85.876 89.3371C86.129 90.0193 86.491 90.6186 86.9621 91.1348C87.4331 91.6511 88.0002 92.0613 88.6631 92.3656C89.3348 92.6606 90.0807 92.8081 90.9007 92.8081C91.7294 92.8081 92.4752 92.6606 93.1382 92.3656C93.8012 92.0613 94.3638 91.6511 94.8262 91.1348C95.2972 90.6186 95.6549 90.0193 95.8991 89.3371C96.1521 88.6457 96.2786 87.9082 96.2786 87.1245V75.2181H97.5609V87.1245C97.5609 88.0649 97.417 88.9499 97.1291 89.7796C96.8412 90.6093 96.3876 91.3376 95.7683 91.9645C95.1576 92.5822 94.3725 93.0754 93.413 93.4442C92.4534 93.8038 91.3019 93.9835 89.9585 93.9835C88.7634 93.9835 87.7036 93.8038 86.7789 93.4442C85.8629 93.0754 85.0909 92.5776 84.4628 91.9507C83.8435 91.3238 83.3724 90.5909 83.0497 89.752C82.7356 88.9038 82.5786 88.0003 82.5786 87.0416V75.2181Z" fill="white"/>
<path d="M115.631 75.2181V76.4073H109.35V93.5548H106.433V76.4073H100.152V75.2181H115.631Z" fill="white"/>
<path d="M124.163 92.8219C124.59 92.8219 125.013 92.762 125.432 92.6422C125.851 92.5131 126.226 92.3287 126.557 92.089C126.889 91.8401 127.155 91.5405 127.355 91.1901C127.556 90.8306 127.656 90.4157 127.656 89.9456C127.656 89.3832 127.517 88.8854 127.238 88.4521C126.967 88.0096 126.61 87.6085 126.165 87.249C125.72 86.8802 125.209 86.5345 124.634 86.2118C124.067 85.8892 123.487 85.5665 122.893 85.2438C122.3 84.9212 121.716 84.5847 121.14 84.2343C120.573 83.8748 120.067 83.4784 119.622 83.0451C119.177 82.6026 118.815 82.114 118.536 81.5792C118.266 81.0353 118.131 80.413 118.131 79.7124C118.131 79.0117 118.253 78.3618 118.497 77.7625C118.75 77.1633 119.116 76.647 119.596 76.2137C120.076 75.7712 120.665 75.4255 121.363 75.1766C122.069 74.9277 122.876 74.8032 123.783 74.8032C124.603 74.8032 125.336 74.8954 125.982 75.0798C126.627 75.2642 127.194 75.5361 127.683 75.8957C128.171 76.2552 128.585 76.6977 128.926 77.2232C129.266 77.7487 129.541 78.3572 129.75 79.0486L128.258 79.7677C128.084 79.2053 127.861 78.6937 127.591 78.2327C127.321 77.7625 126.998 77.3615 126.623 77.0296C126.248 76.6977 125.811 76.4442 125.314 76.2691C124.826 76.0847 124.272 75.9925 123.652 75.9925C123.103 75.9925 122.623 76.0755 122.213 76.2414C121.803 76.3981 121.458 76.6102 121.179 76.8775C120.909 77.1357 120.704 77.4307 120.564 77.7625C120.433 78.0852 120.368 78.4171 120.368 78.7582C120.368 79.2376 120.508 79.6801 120.787 80.0858C121.066 80.4822 121.437 80.8602 121.899 81.2197C122.361 81.57 122.885 81.9111 123.469 82.243C124.062 82.5749 124.664 82.9114 125.275 83.2525C125.886 83.5936 126.483 83.9486 127.068 84.3173C127.661 84.6861 128.189 85.0917 128.651 85.5342C129.113 85.9675 129.484 86.4469 129.763 86.9724C130.042 87.4887 130.182 88.0695 130.182 88.7148C130.182 89.4431 130.051 90.1299 129.789 90.7753C129.528 91.4114 129.135 91.9692 128.612 92.4485C128.088 92.9187 127.438 93.2921 126.662 93.5687C125.886 93.8452 124.983 93.9835 123.953 93.9835C123.116 93.9835 122.37 93.8867 121.716 93.6931C121.062 93.4995 120.481 93.2183 119.975 92.8496C119.478 92.4808 119.051 92.0337 118.693 91.5082C118.336 90.9735 118.043 90.365 117.816 89.6828L119.374 89.0052C119.557 89.6045 119.801 90.1392 120.106 90.6093C120.42 91.0795 120.782 91.4805 121.192 91.8124C121.602 92.1351 122.056 92.384 122.553 92.5592C123.059 92.7343 123.596 92.8219 124.163 92.8219Z" fill="white"/>
<path d="M134.238 75.2181H137.156V93.5548H134.238V75.2181Z" fill="white"/>
<path d="M141.88 75.2181H147.663C149.443 75.2181 150.974 75.3932 152.256 75.7436C153.538 76.0939 154.607 76.6563 155.462 77.4307C156.439 78.3157 157.172 79.3298 157.66 80.473C158.157 81.6161 158.406 82.8653 158.406 84.2205C158.406 85.5112 158.184 86.7235 157.739 87.8574C157.303 88.9914 156.657 89.9824 155.802 90.8306C154.956 91.6695 153.905 92.3333 152.649 92.8219C151.401 93.3105 149.971 93.5548 148.357 93.5548H141.88V75.2181ZM144.798 92.2135H147.899C148.876 92.2135 149.796 92.0429 150.66 91.7018C151.523 91.3607 152.274 90.8536 152.91 90.1807C153.556 89.5077 154.062 88.6826 154.428 87.7053C154.803 86.7189 154.991 85.5803 154.991 84.2897C154.991 83.1557 154.816 82.1186 154.468 81.1782C154.119 80.2287 153.63 79.4128 153.002 78.7306C152.374 78.0483 151.624 77.5182 150.751 77.1403C149.888 76.7623 148.941 76.5733 147.912 76.5733H144.798V92.2135Z" fill="white"/>
<path d="M174.409 75.2181V76.4073H165.263V82.9621H171.386V84.1514H165.263V92.3656H174.409V93.5548H162.345V75.2181H174.409Z" fill="white"/>
<path d="M196.968 75.2181V76.4073H190.687V93.5548H187.769V76.4073H181.488V75.2181H196.968Z" fill="white"/>
<path d="M202.738 84.7598V93.5548H199.82V75.2181H202.738V83.5706H211.453V75.2181H214.371V93.5548H211.453V84.7598H202.738Z" fill="white"/>
<path d="M231.172 75.2181V76.4073H222.025V82.9621H228.149V84.1514H222.025V92.3656H231.172V93.5548H219.107V75.2181H231.172Z" fill="white"/>
<path d="M240.096 75.2181H247.083C248.008 75.2181 248.854 75.3287 249.622 75.55C250.398 75.762 251.061 76.0662 251.61 76.4627C252.169 76.8591 252.601 77.3339 252.906 77.887C253.211 78.4402 253.364 79.0486 253.364 79.7124C253.364 80.2194 253.316 80.6712 253.22 81.0676C253.124 81.464 252.954 81.8328 252.71 82.1739C252.465 82.5058 252.138 82.8238 251.728 83.1281C251.327 83.4231 250.817 83.7273 250.197 84.0407V84.0961C250.817 84.1975 251.375 84.3726 251.872 84.6215C252.369 84.8705 252.792 85.1885 253.141 85.5757C253.499 85.9537 253.774 86.4008 253.966 86.9171C254.158 87.4241 254.254 87.9819 254.254 88.5904C254.254 89.2818 254.11 89.9317 253.822 90.5402C253.543 91.1394 253.137 91.6649 252.605 92.1167C252.081 92.5592 251.445 92.9095 250.694 93.1676C249.953 93.4258 249.12 93.5548 248.195 93.5548H240.096V75.2181ZM243.014 83.4738H246.73C247.314 83.4738 247.833 83.3862 248.287 83.211C248.74 83.0359 249.124 82.7962 249.438 82.4919C249.752 82.1785 249.988 81.8097 250.145 81.3856C250.311 80.9524 250.394 80.4868 250.394 79.989C250.394 79.4543 250.298 78.9702 250.106 78.537C249.914 78.0944 249.613 77.7165 249.203 77.403C248.802 77.0896 248.287 76.8499 247.659 76.6839C247.039 76.518 246.294 76.435 245.421 76.435H243.014V83.4738ZM243.014 92.2135H246.167C247.013 92.2135 247.746 92.1305 248.365 91.9645C248.993 91.7894 249.508 91.5497 249.909 91.2455C250.319 90.932 250.62 90.5586 250.812 90.1253C251.013 89.692 251.113 89.2173 251.113 88.701C251.113 88.1202 251.026 87.5809 250.851 87.083C250.677 86.5852 250.389 86.1565 249.988 85.797C249.595 85.4282 249.076 85.1378 248.431 84.9258C247.794 84.7137 247.009 84.6077 246.075 84.6077H243.014V92.2135Z" fill="white"/>
<path d="M266.606 93.9835C265.262 93.9835 264.006 93.73 262.837 93.223C261.677 92.7159 260.665 92.0245 259.802 91.1487C258.947 90.2636 258.271 89.2357 257.773 88.0649C257.285 86.8848 257.041 85.6264 257.041 84.2897C257.041 83.4138 257.15 82.5703 257.368 81.759C257.595 80.9477 257.913 80.1918 258.323 79.4911C258.733 78.7905 259.226 78.1544 259.802 77.5828C260.386 77.002 261.032 76.5088 261.738 76.1031C262.445 75.6883 263.208 75.3702 264.028 75.1489C264.857 74.9185 265.716 74.8032 266.606 74.8032C267.504 74.8032 268.364 74.9185 269.184 75.1489C270.004 75.3702 270.767 75.6883 271.473 76.1031C272.189 76.5088 272.834 77.002 273.41 77.5828C273.986 78.1544 274.479 78.7905 274.889 79.4911C275.307 80.1918 275.626 80.9477 275.844 81.759C276.071 82.5703 276.184 83.4138 276.184 84.2897C276.184 85.1839 276.071 86.0413 275.844 86.8618C275.626 87.6823 275.307 88.4521 274.889 89.1712C274.479 89.8903 273.986 90.5448 273.41 91.1348C272.834 91.7249 272.189 92.2319 271.473 92.656C270.767 93.0801 270.004 93.4073 269.184 93.6378C268.364 93.8683 267.504 93.9835 266.606 93.9835ZM266.606 93.0708C267.6 93.0708 268.477 92.8542 269.236 92.4209C270.004 91.9784 270.649 91.3653 271.172 90.5817C271.696 89.7981 272.088 88.8715 272.35 87.8021C272.621 86.7327 272.756 85.5619 272.756 84.2897C272.756 83.0266 272.621 81.8697 272.35 80.8187C272.088 79.7677 271.696 78.8642 271.172 78.1083C270.649 77.3431 270.004 76.7531 269.236 76.3382C268.477 75.9141 267.6 75.7021 266.606 75.7021C265.594 75.7021 264.704 75.9141 263.936 76.3382C263.178 76.7531 262.536 77.3431 262.013 78.1083C261.498 78.8642 261.11 79.7677 260.848 80.8187C260.587 81.8697 260.456 83.0266 260.456 84.2897C260.456 85.5619 260.587 86.7327 260.848 87.8021C261.11 88.8715 261.498 89.7981 262.013 90.5817C262.536 91.3653 263.178 91.9784 263.936 92.4209C264.704 92.8542 265.594 93.0708 266.606 93.0708Z" fill="white"/>
<path d="M279.285 93.5548H277.754L285.069 84.5109L278.395 75.2181H281.863L286.901 82.2569L292.58 75.2181H294.124L287.607 83.2663L295 93.5548H291.507L285.775 85.5204L279.285 93.5548Z" fill="white"/>
<defs>
<radialGradient id="paint0_angular_2079_1517" cx="0" cy="0" r="1" gradientUnits="userSpaceOnUse" gradientTransform="translate(41.4745 41.4745) rotate(135.048) scale(58.7157)">
<stop stop-color="#4D17E0" stop-opacity="0"/>
<stop offset="1" stop-color="#9B65B7"/>
</radialGradient>
</defs>
</svg>
